<svg xmlns="http://www.w3.org/2000/svg" xmlns:xlink="http://www.w3.org/1999/xlink" width="500" zoomAndPan="magnify" viewBox="0 0 375 374.999991" height="500" preserveAspectRatio="xMidYMid meet" version="1.0"><defs><clipPath id="id1"><path d="M 116 126.101562 L 242 126.101562 L 242 253 L 116 253 Z M 116 126.101562 " clip-rule="nonzero"/></clipPath></defs><path fill="#004aad" d="M 187.5 168.472656 L 183.320312 168.472656 C 183.320312 168.199219 183.292969 167.925781 183.238281 167.65625 C 183.1875 167.386719 183.105469 167.125 183 166.871094 C 182.898438 166.617188 182.769531 166.375 182.617188 166.144531 C 182.464844 165.917969 182.289062 165.703125 182.097656 165.511719 C 181.902344 165.316406 181.691406 165.140625 181.460938 164.988281 C 181.234375 164.835938 180.992188 164.707031 180.738281 164.601562 C 180.488281 164.496094 180.226562 164.417969 179.957031 164.363281 C 179.6875 164.308594 179.414062 164.28125 179.140625 164.28125 C 178.867188 164.28125 178.59375 164.308594 178.324219 164.363281 C 178.054688 164.417969 177.792969 164.496094 177.542969 164.601562 C 177.289062 164.707031 177.046875 164.835938 176.820312 164.988281 C 176.589844 165.140625 176.378906 165.316406 176.183594 165.511719 C 175.992188 165.703125 175.816406 165.917969 175.664062 166.144531 C 175.511719 166.375 175.382812 166.617188 175.28125 166.871094 C 175.175781 167.125 175.09375 167.386719 175.042969 167.65625 C 174.988281 167.925781 174.960938 168.199219 174.960938 168.472656 L 162.421875 168.472656 C 162.148438 168.472656 161.878906 168.5 161.609375 168.554688 C 161.339844 168.609375 161.078125 168.6875 160.824219 168.792969 C 160.570312 168.898438 160.328125 169.027344 160.101562 169.179688 C 159.875 169.332031 159.664062 169.507812 159.46875 169.703125 C 159.273438 169.898438 159.101562 170.109375 158.949219 170.335938 C 158.796875 170.566406 158.667969 170.808594 158.5625 171.0625 C 158.457031 171.316406 158.378906 171.578125 158.324219 171.847656 C 158.269531 172.117188 158.246094 172.390625 158.246094 172.667969 C 158.246094 172.941406 158.269531 173.214844 158.324219 173.484375 C 158.378906 173.753906 158.457031 174.015625 158.5625 174.269531 C 158.667969 174.527344 158.796875 174.765625 158.949219 174.996094 C 159.101562 175.226562 159.273438 175.4375 159.46875 175.632812 C 159.664062 175.824219 159.875 176 160.101562 176.152344 C 160.328125 176.304688 160.570312 176.433594 160.824219 176.539062 C 161.078125 176.644531 161.339844 176.726562 161.609375 176.777344 C 161.878906 176.832031 162.148438 176.859375 162.421875 176.859375 L 166.601562 176.859375 L 166.601562 185.242188 L 162.421875 185.242188 C 162.148438 185.242188 161.878906 185.269531 161.609375 185.324219 C 161.339844 185.378906 161.078125 185.457031 160.824219 185.5625 C 160.570312 185.667969 160.328125 185.796875 160.101562 185.949219 C 159.875 186.105469 159.664062 186.277344 159.46875 186.472656 C 159.273438 186.667969 159.101562 186.878906 158.949219 187.105469 C 158.796875 187.335938 158.667969 187.578125 158.5625 187.832031 C 158.457031 188.085938 158.378906 188.347656 158.324219 188.617188 C 158.269531 188.886719 158.246094 189.160156 158.246094 189.4375 C 158.246094 189.710938 158.269531 189.984375 158.324219 190.253906 C 158.378906 190.523438 158.457031 190.785156 158.5625 191.039062 C 158.667969 191.296875 158.796875 191.535156 158.949219 191.765625 C 159.101562 191.996094 159.273438 192.207031 159.46875 192.402344 C 159.664062 192.59375 159.875 192.769531 160.101562 192.921875 C 160.328125 193.074219 160.570312 193.203125 160.824219 193.308594 C 161.078125 193.414062 161.339844 193.496094 161.609375 193.546875 C 161.878906 193.601562 162.148438 193.628906 162.421875 193.628906 L 166.601562 193.628906 L 166.601562 202.015625 L 162.421875 202.015625 C 162.148438 202.015625 161.878906 202.039062 161.609375 202.09375 C 161.339844 202.148438 161.078125 202.226562 160.824219 202.332031 C 160.570312 202.4375 160.328125 202.566406 160.101562 202.71875 C 159.875 202.875 159.664062 203.046875 159.46875 203.242188 C 159.273438 203.4375 159.101562 203.648438 158.949219 203.875 C 158.796875 204.105469 158.667969 204.347656 158.5625 204.601562 C 158.457031 204.855469 158.378906 205.117188 158.324219 205.386719 C 158.269531 205.660156 158.246094 205.929688 158.246094 206.207031 C 158.246094 206.480469 158.269531 206.753906 158.324219 207.023438 C 158.378906 207.292969 158.457031 207.554688 158.5625 207.808594 C 158.667969 208.066406 158.796875 208.304688 158.949219 208.535156 C 159.101562 208.765625 159.273438 208.976562 159.46875 209.171875 C 159.664062 209.367188 159.875 209.539062 160.101562 209.691406 C 160.328125 209.84375 160.570312 209.972656 160.824219 210.078125 C 161.078125 210.183594 161.339844 210.265625 161.609375 210.316406 C 161.878906 210.371094 162.148438 210.398438 162.421875 210.398438 L 174.960938 210.398438 C 174.960938 210.671875 174.988281 210.945312 175.042969 211.214844 C 175.09375 211.488281 175.175781 211.75 175.28125 212.003906 C 175.382812 212.257812 175.511719 212.5 175.664062 212.726562 C 175.816406 212.957031 175.992188 213.167969 176.183594 213.363281 C 176.378906 213.558594 176.589844 213.730469 176.820312 213.882812 C 177.046875 214.039062 177.289062 214.167969 177.542969 214.273438 C 177.792969 214.378906 178.054688 214.457031 178.324219 214.511719 C 178.59375 214.5625 178.867188 214.589844 179.140625 214.589844 C 179.414062 214.589844 179.6875 214.5625 179.957031 214.511719 C 180.226562 214.457031 180.488281 214.378906 180.738281 214.273438 C 180.992188 214.167969 181.234375 214.039062 181.460938 213.882812 C 181.691406 213.730469 181.902344 213.558594 182.097656 213.363281 C 182.289062 213.167969 182.464844 212.957031 182.617188 212.726562 C 182.769531 212.5 182.898438 212.257812 183 212.003906 C 183.105469 211.75 183.1875 211.488281 183.238281 211.214844 C 183.292969 210.945312 183.320312 210.671875 183.320312 210.398438 L 187.5 210.398438 C 188.707031 210.394531 189.890625 210.222656 191.050781 209.875 C 192.210938 209.53125 193.296875 209.027344 194.308594 208.363281 C 195.324219 207.703125 196.222656 206.910156 197.007812 205.988281 C 197.792969 205.066406 198.433594 204.050781 198.925781 202.945312 C 199.417969 201.835938 199.742188 200.679688 199.902344 199.480469 C 200.0625 198.277344 200.046875 197.078125 199.859375 195.878906 C 199.675781 194.679688 199.320312 193.53125 198.804688 192.4375 C 198.285156 191.339844 197.625 190.339844 196.820312 189.4375 C 197.625 188.53125 198.285156 187.53125 198.804688 186.4375 C 199.320312 185.339844 199.675781 184.191406 199.859375 182.996094 C 200.046875 181.796875 200.0625 180.597656 199.902344 179.394531 C 199.742188 178.191406 199.417969 177.035156 198.925781 175.929688 C 198.433594 174.820312 197.792969 173.804688 197.007812 172.882812 C 196.222656 171.960938 195.324219 171.167969 194.308594 170.507812 C 193.296875 169.847656 192.210938 169.34375 191.050781 168.996094 C 189.890625 168.652344 188.707031 168.476562 187.5 168.472656 Z M 187.5 176.859375 C 187.773438 176.859375 188.046875 176.886719 188.3125 176.941406 C 188.582031 176.992188 188.84375 177.074219 189.097656 177.179688 C 189.351562 177.285156 189.59375 177.414062 189.820312 177.566406 C 190.050781 177.71875 190.261719 177.890625 190.453125 178.085938 C 190.648438 178.28125 190.820312 178.492188 190.972656 178.722656 C 191.125 178.953125 191.253906 179.191406 191.359375 179.449219 C 191.464844 179.703125 191.542969 179.964844 191.597656 180.234375 C 191.652344 180.503906 191.679688 180.777344 191.679688 181.050781 C 191.679688 181.328125 191.652344 181.601562 191.597656 181.871094 C 191.542969 182.140625 191.464844 182.402344 191.359375 182.65625 C 191.253906 182.910156 191.125 183.152344 190.972656 183.382812 C 190.820312 183.609375 190.648438 183.820312 190.453125 184.015625 C 190.261719 184.210938 190.050781 184.382812 189.820312 184.539062 C 189.59375 184.691406 189.351562 184.820312 189.097656 184.925781 C 188.84375 185.03125 188.582031 185.109375 188.3125 185.164062 C 188.046875 185.21875 187.773438 185.242188 187.5 185.242188 L 174.960938 185.242188 L 174.960938 176.859375 Z M 187.5 202.015625 L 174.960938 202.015625 L 174.960938 193.628906 L 187.5 193.628906 C 187.773438 193.628906 188.046875 193.65625 188.3125 193.710938 C 188.582031 193.761719 188.84375 193.84375 189.097656 193.949219 C 189.351562 194.054688 189.59375 194.183594 189.820312 194.335938 C 190.050781 194.488281 190.261719 194.664062 190.453125 194.855469 C 190.648438 195.050781 190.820312 195.261719 190.972656 195.492188 C 191.125 195.722656 191.253906 195.960938 191.359375 196.21875 C 191.464844 196.472656 191.542969 196.734375 191.597656 197.003906 C 191.652344 197.273438 191.679688 197.546875 191.679688 197.820312 C 191.679688 198.097656 191.652344 198.371094 191.597656 198.640625 C 191.542969 198.910156 191.464844 199.171875 191.359375 199.425781 C 191.253906 199.679688 191.125 199.921875 190.972656 200.152344 C 190.820312 200.378906 190.648438 200.589844 190.453125 200.785156 C 190.261719 200.980469 190.050781 201.152344 189.820312 201.308594 C 189.59375 201.460938 189.351562 201.589844 189.097656 201.695312 C 188.84375 201.800781 188.582031 201.878906 188.3125 201.933594 C 188.046875 201.988281 187.773438 202.015625 187.5 202.015625 Z M 187.5 202.015625 " fill-opacity="1" fill-rule="nonzero"/><g clip-path="url(#id1)"><path fill="#004aad" d="M 131.351562 148.75 C 130.070312 150.265625 128.859375 151.839844 127.726562 153.46875 C 126.59375 155.097656 125.539062 156.78125 124.5625 158.511719 C 123.585938 160.242188 122.695312 162.015625 121.890625 163.832031 C 121.082031 165.648438 120.363281 167.496094 119.730469 169.382812 C 119.097656 171.265625 118.554688 173.175781 118.101562 175.113281 C 117.652344 177.046875 117.292969 179 117.023438 180.972656 C 116.757812 182.941406 116.582031 184.917969 116.503906 186.90625 C 116.421875 188.890625 116.4375 190.878906 116.542969 192.863281 C 116.652344 194.847656 116.855469 196.824219 117.148438 198.789062 C 117.441406 200.757812 117.828125 202.703125 118.308594 204.632812 C 118.785156 206.5625 119.355469 208.464844 120.011719 210.339844 C 120.671875 212.214844 121.417969 214.054688 122.25 215.859375 C 123.082031 217.664062 123.996094 219.425781 124.996094 221.144531 C 125.996094 222.859375 127.074219 224.527344 128.230469 226.140625 C 129.386719 227.753906 130.617188 229.3125 131.921875 230.808594 C 133.222656 232.308594 134.59375 233.738281 136.035156 235.105469 C 137.472656 236.472656 138.972656 237.769531 140.535156 238.996094 C 142.097656 240.21875 143.710938 241.367188 145.382812 242.4375 C 147.050781 243.507812 148.769531 244.496094 150.53125 245.402344 C 152.296875 246.3125 154.097656 247.132812 155.941406 247.867188 C 157.78125 248.605469 159.652344 249.25 161.554688 249.808594 C 163.457031 250.367188 165.382812 250.832031 167.328125 251.207031 C 169.273438 251.582031 171.234375 251.863281 173.207031 252.050781 C 175.179688 252.238281 177.160156 252.335938 179.140625 252.335938 C 181.121094 252.335938 183.101562 252.238281 185.074219 252.050781 C 187.046875 251.863281 189.007812 251.582031 190.953125 251.207031 C 192.898438 250.832031 194.824219 250.367188 196.726562 249.808594 C 198.628906 249.25 200.5 248.605469 202.339844 247.867188 C 204.183594 247.132812 205.984375 246.3125 207.75 245.402344 C 209.511719 244.496094 211.230469 243.507812 212.898438 242.4375 C 214.570312 241.367188 216.183594 240.21875 217.746094 238.996094 C 219.308594 237.769531 220.808594 236.472656 222.246094 235.105469 C 223.6875 233.738281 225.058594 232.308594 226.359375 230.808594 C 227.664062 229.3125 228.894531 227.753906 230.050781 226.140625 C 231.207031 224.527344 232.285156 222.859375 233.285156 221.144531 C 234.285156 219.425781 235.199219 217.664062 236.03125 215.859375 C 236.863281 214.054688 237.609375 212.214844 238.269531 210.339844 C 238.925781 208.464844 239.496094 206.5625 239.972656 204.632812 C 240.453125 202.703125 240.839844 200.757812 241.132812 198.789062 C 241.425781 196.824219 241.628906 194.847656 241.738281 192.863281 C 241.84375 190.878906 241.859375 188.890625 241.777344 186.90625 C 241.699219 184.917969 241.523438 182.941406 241.257812 180.972656 C 240.988281 179 240.628906 177.046875 240.179688 175.113281 C 239.726562 173.175781 239.183594 171.265625 238.550781 169.382812 C 237.917969 167.496094 237.199219 165.648438 236.390625 163.832031 C 235.585938 162.015625 234.695312 160.242188 233.71875 158.511719 C 232.742188 156.78125 231.6875 155.097656 230.554688 153.46875 C 229.421875 151.839844 228.210938 150.265625 226.929688 148.75 C 226.195312 147.886719 225.4375 147.046875 224.65625 146.222656 C 223.875 145.402344 223.074219 144.605469 222.25 143.824219 C 221.425781 143.046875 220.582031 142.292969 219.71875 141.5625 C 218.851562 140.828125 217.96875 140.121094 217.066406 139.4375 C 216.164062 138.753906 215.246094 138.09375 214.308594 137.460938 C 213.371094 136.824219 212.414062 136.214844 211.445312 135.632812 C 210.472656 135.050781 209.488281 134.496094 208.488281 133.964844 C 207.488281 133.4375 206.472656 132.933594 205.445312 132.460938 C 204.417969 131.984375 203.378906 131.539062 202.328125 131.121094 C 201.277344 130.703125 200.214844 130.3125 199.140625 129.949219 C 198.070312 129.589844 196.988281 129.257812 195.898438 128.957031 C 194.808594 128.652344 193.710938 128.382812 192.605469 128.136719 C 191.5 127.894531 190.390625 127.683594 189.273438 127.5 C 188.15625 127.316406 187.035156 127.164062 185.914062 127.042969 C 184.789062 126.921875 183.660156 126.828125 182.53125 126.765625 C 181.402344 126.707031 180.273438 126.675781 179.140625 126.675781 C 178.007812 126.675781 176.878906 126.707031 175.75 126.765625 C 174.621094 126.828125 173.492188 126.921875 172.367188 127.042969 C 171.242188 127.164062 170.125 127.316406 169.007812 127.5 C 167.890625 127.683594 166.78125 127.894531 165.675781 128.136719 C 164.570312 128.382812 163.472656 128.652344 162.382812 128.957031 C 161.292969 129.257812 160.210938 129.589844 159.140625 129.949219 C 158.066406 130.3125 157.003906 130.703125 155.953125 131.121094 C 154.902344 131.539062 153.863281 131.984375 152.835938 132.460938 C 151.808594 132.933594 150.792969 133.4375 149.792969 133.964844 C 148.792969 134.496094 147.808594 135.050781 146.835938 135.632812 C 145.867188 136.214844 144.910156 136.824219 143.972656 137.460938 C 143.035156 138.09375 142.117188 138.753906 141.214844 139.4375 C 140.3125 140.121094 139.429688 140.828125 138.5625 141.5625 C 137.699219 142.292969 136.855469 143.046875 136.03125 143.824219 C 135.207031 144.605469 134.40625 145.402344 133.625 146.222656 C 132.84375 147.046875 132.085938 147.886719 131.351562 148.75 Z M 211.65625 222.117188 C 210.652344 223.121094 209.605469 224.082031 208.511719 224.988281 C 207.421875 225.898438 206.292969 226.753906 205.121094 227.558594 C 203.949219 228.363281 202.746094 229.113281 201.507812 229.804688 C 200.265625 230.496094 199 231.128906 197.699219 231.703125 C 196.402344 232.277344 195.082031 232.792969 193.734375 233.242188 C 192.390625 233.695312 191.027344 234.085938 189.648438 234.410156 C 188.265625 234.734375 186.871094 234.996094 185.46875 235.191406 C 184.0625 235.386719 182.652344 235.515625 181.234375 235.582031 C 179.816406 235.644531 178.398438 235.644531 176.984375 235.578125 C 175.566406 235.511719 174.15625 235.378906 172.75 235.179688 C 171.34375 234.984375 169.953125 234.722656 168.570312 234.394531 C 167.191406 234.066406 165.828125 233.675781 164.484375 233.222656 C 163.140625 232.769531 161.820312 232.253906 160.523438 231.675781 C 159.226562 231.101562 157.957031 230.464844 156.71875 229.769531 C 155.480469 229.078125 154.277344 228.328125 153.109375 227.519531 C 151.9375 226.714844 150.808594 225.855469 149.71875 224.945312 C 149.292969 224.570312 148.816406 224.285156 148.285156 224.09375 C 147.757812 223.898438 147.207031 223.804688 146.644531 223.816406 C 146.078125 223.828125 145.535156 223.945312 145.011719 224.160156 C 144.492188 224.375 144.027344 224.679688 143.617188 225.070312 C 143.429688 225.261719 143.222656 225.433594 142.996094 225.582031 C 142.773438 225.730469 142.535156 225.855469 142.285156 225.953125 C 142.035156 226.054688 141.777344 226.128906 141.515625 226.175781 C 141.25 226.21875 140.980469 226.238281 140.714844 226.230469 C 140.445312 226.222656 140.179688 226.183594 139.917969 226.121094 C 139.65625 226.058594 139.40625 225.96875 139.164062 225.851562 C 138.917969 225.734375 138.691406 225.597656 138.476562 225.433594 C 138.261719 225.269531 138.066406 225.085938 137.890625 224.882812 C 136.789062 223.589844 135.75 222.246094 134.777344 220.855469 C 133.800781 219.464844 132.890625 218.03125 132.046875 216.554688 C 131.207031 215.074219 130.433594 213.5625 129.734375 212.011719 C 129.03125 210.464844 128.40625 208.886719 127.851562 207.277344 C 127.296875 205.667969 126.820312 204.039062 126.417969 202.386719 C 126.019531 200.730469 125.695312 199.0625 125.449219 197.378906 C 125.203125 195.695312 125.035156 194.003906 124.949219 192.304688 C 124.863281 190.605469 124.851562 188.90625 124.925781 187.207031 C 124.996094 185.507812 125.144531 183.816406 125.375 182.128906 C 125.605469 180.441406 125.910156 178.773438 126.296875 177.113281 C 126.679688 175.457031 127.140625 173.824219 127.679688 172.207031 C 128.21875 170.59375 128.828125 169.011719 129.515625 167.453125 C 130.203125 165.898438 130.957031 164.378906 131.785156 162.890625 C 132.613281 161.40625 133.507812 159.964844 134.472656 158.5625 C 135.433594 157.164062 136.460938 155.808594 137.546875 154.503906 C 138.636719 153.199219 139.785156 151.949219 140.988281 150.753906 C 142.195312 149.554688 143.453125 148.417969 144.765625 147.339844 C 146.078125 146.261719 147.4375 145.246094 148.84375 144.296875 C 150.25 143.34375 151.695312 142.460938 153.183594 141.648438 C 154.675781 140.832031 156.199219 140.089844 157.757812 139.417969 C 159.3125 138.746094 160.902344 138.148438 162.515625 137.625 C 164.128906 137.101562 165.761719 136.65625 167.417969 136.285156 C 169.074219 135.917969 170.742188 135.628906 172.425781 135.414062 C 174.109375 135.203125 175.796875 135.070312 177.492188 135.015625 C 179.1875 134.960938 180.882812 134.988281 182.574219 135.09375 C 184.269531 135.199219 185.953125 135.382812 187.628906 135.648438 C 189.304688 135.910156 190.964844 136.253906 192.609375 136.671875 C 194.25 137.09375 195.871094 137.589844 197.46875 138.160156 C 199.066406 138.730469 200.632812 139.378906 202.171875 140.097656 C 203.707031 140.816406 205.207031 141.605469 206.671875 142.464844 C 208.136719 143.324219 209.554688 144.253906 210.933594 145.246094 C 212.308594 146.238281 213.636719 147.296875 214.914062 148.414062 C 215.089844 148.566406 215.25 148.734375 215.390625 148.917969 C 215.53125 149.101562 215.652344 149.296875 215.753906 149.507812 C 215.855469 149.714844 215.933594 149.933594 215.988281 150.160156 C 216.042969 150.386719 216.078125 150.613281 216.085938 150.847656 C 216.09375 151.078125 216.078125 151.308594 216.039062 151.539062 C 216.003906 151.765625 215.941406 151.988281 215.855469 152.207031 C 215.769531 152.421875 215.664062 152.628906 215.539062 152.824219 C 215.410156 153.015625 215.265625 153.195312 215.101562 153.359375 L 214.664062 153.800781 C 214.273438 154.203125 213.964844 154.660156 213.746094 155.175781 C 213.523438 155.691406 213.40625 156.230469 213.386719 156.789062 C 213.367188 157.351562 213.449219 157.894531 213.632812 158.425781 C 213.816406 158.953125 214.089844 159.433594 214.453125 159.859375 C 215.367188 160.953125 216.222656 162.085938 217.03125 163.257812 C 217.835938 164.433594 218.585938 165.640625 219.277344 166.882812 C 219.972656 168.128906 220.609375 169.398438 221.183594 170.703125 C 221.761719 172.003906 222.277344 173.332031 222.730469 174.679688 C 223.183594 176.03125 223.574219 177.398438 223.902344 178.785156 C 224.230469 180.171875 224.492188 181.570312 224.691406 182.980469 C 224.890625 184.390625 225.023438 185.808594 225.089844 187.230469 C 225.160156 188.65625 225.160156 190.078125 225.097656 191.5 C 225.03125 192.925781 224.902344 194.34375 224.707031 195.753906 C 224.511719 197.164062 224.253906 198.5625 223.929688 199.953125 C 223.605469 201.339844 223.214844 202.707031 222.765625 204.058594 C 222.316406 205.410156 221.800781 206.738281 221.230469 208.039062 C 220.65625 209.34375 220.023438 210.617188 219.332031 211.863281 C 218.640625 213.109375 217.894531 214.316406 217.089844 215.492188 C 216.289062 216.667969 215.433594 217.804688 214.523438 218.898438 C 213.617188 219.996094 212.660156 221.046875 211.65625 222.054688 Z M 211.65625 222.117188 " fill-opacity="1" fill-rule="nonzero"/></g></svg>